<svg width="500" height="500" viewBox="200 50 80 135" fill="none" xmlns="http://www.w3.org/2000/svg">
<style>
  @keyframes hueRotate {
    0% { filter: hue-rotate(0deg); }
    100% { filter: hue-rotate(360deg); }
  }
  svg {
    animation: hueRotate 300s linear infinite;
    animation-delay: calc(var(--random-offset, 0s));
  }
</style>
<script type="text/javascript">
  document.currentScript.parentElement.style.setProperty('--random-offset', `-${Math.random() * 300}s`);
</script>
<path d="M255.554 58.2726C256.047 58.6421 256.047 59.0116 255.431 59.5043C254.2 60.4896 253.214 61.5981 252.106 62.7066C250.874 63.9383 249.766 65.17 248.657 66.4017L244.593 71.2052C243.607 72.3137 242.622 73.4222 241.636 74.5307C241.144 75.1465 240.528 75.6392 239.912 76.255L238.434 77.8562C238.311 78.1025 238.188 78.3489 238.065 78.5952C236.094 80.9354 225.871 92.5131 224.024 94.8533C219.836 100.026 215.771 105.199 211.707 110.372C211.337 110.865 210.968 111.481 210.598 112.097C210.968 111.85 211.214 111.481 211.707 111.481C211.83 111.481 211.953 111.358 212.076 111.235L213.062 110.495C213.431 110.249 213.801 110.126 214.047 109.88C214.293 109.756 214.417 109.51 214.663 109.264C215.279 109.264 215.648 108.648 216.387 108.525C216.51 108.525 216.757 108.648 217.003 108.771L218.851 107.663C219.097 107.539 219.343 107.416 219.59 107.293H219.959C220.452 107.047 220.821 106.677 221.314 106.554C221.807 106.431 222.176 106.185 222.669 105.938H223.285C223.408 105.938 223.285 105.569 223.531 105.692V106.061H223.654L224.393 105.692C224.639 105.569 224.886 105.569 225.132 105.446C225.255 105.446 225.378 105.446 225.502 105.322L226.364 104.953C226.856 104.83 227.226 104.583 227.595 104.091C228.211 103.968 228.95 103.844 229.566 103.352L229.936 103.721C230.059 103.598 230.182 103.475 230.305 103.352C230.428 103.352 230.551 103.352 230.798 103.475C230.551 103.598 230.305 103.844 230.059 103.844C229.689 103.844 229.443 104.091 229.073 104.214C228.704 104.337 228.458 104.583 228.088 104.707C227.719 104.83 227.472 105.076 227.103 105.199C226.61 105.322 226.241 105.692 225.748 105.938V106.185C225.871 106.061 225.994 106.061 226.117 106.061C226.487 105.938 226.856 105.692 227.349 105.569C228.088 105.446 228.704 105.076 229.32 104.83C229.566 104.707 229.812 104.583 230.182 104.583C230.428 104.583 230.675 104.337 230.921 104.214C231.044 104.214 231.167 104.337 231.29 104.46C231.906 104.46 232.399 104.337 232.768 103.968C233.384 103.968 233.877 103.721 234.37 103.598H235.232C234.862 103.968 234.493 104.214 234.123 104.337C233.754 104.46 233.384 104.707 233.015 104.83C232.768 104.953 232.399 105.076 232.153 105.322C232.029 105.569 231.783 105.692 231.66 105.815V106.061C231.537 106.061 231.414 106.061 231.29 106.061L231.167 106.185C231.167 106.185 231.167 106.308 231.167 106.431L231.537 106.8C231.537 106.8 231.537 106.924 231.414 106.924H231.044C230.551 107.293 229.936 107.663 229.32 108.032C228.95 108.278 228.581 108.525 228.088 108.648C227.595 108.771 227.226 109.141 226.733 109.387L224.393 110.865C224.27 110.988 224.024 110.988 223.777 111.111C223.654 111.358 223.531 111.727 223.038 111.604C222.915 111.974 222.792 112.343 222.422 112.22C222.299 112.22 222.176 112.343 222.053 112.466C221.56 112.713 221.068 112.959 220.575 113.328C220.329 113.452 220.082 113.575 219.959 113.944C219.959 114.067 219.836 114.191 219.713 114.191C219.097 114.191 218.851 114.683 218.358 114.93C218.235 115.299 217.865 115.176 217.742 115.422C217.619 115.669 217.373 115.792 217.126 116.038L216.51 116.531L215.771 117.147L215.032 117.639L212.323 119.856L211.953 120.226C211.707 120.842 211.214 121.211 210.722 121.457L209.613 122.196C209.49 122.32 209.367 122.443 209.244 122.443C208.135 123.428 207.027 124.413 205.795 125.152C203.578 126.507 201.607 128.232 200.129 129.956C199.144 130.449 198.651 130.325 198.158 129.956C197.296 129.34 196.68 128.478 196.188 127.616C195.079 125.645 195.079 125.645 194.587 122.443L195.941 120.718C197.666 118.625 200.868 113.452 201.238 111.974C201.607 111.604 201.977 111.235 202.223 110.742L201.114 111.481C200.252 111.604 199.513 112.343 198.774 113.082L196.804 115.053C196.927 114.683 197.173 114.314 197.419 114.067C196.434 114.806 195.572 115.792 194.833 116.777L193.724 118.255C193.355 118.501 192.985 118.748 192.616 118.994C192.493 119.117 192.246 119.117 192.123 118.994C192.37 118.625 192.739 118.378 192.985 118.009L189.783 120.965C190.153 120.718 190.522 120.595 191.015 120.595C189.783 121.581 188.551 122.566 187.443 123.674L186.704 124.413C186.334 124.66 185.965 124.906 185.595 125.152L180.422 128.478C178.698 127.985 177.959 126.63 177.097 125.399C176.235 124.044 174.264 120.718 174.264 119.117C174.88 117.762 178.082 112.589 182.516 106.8C183.625 105.322 184.733 104.091 185.965 102.366C187.32 99.9031 188.551 99.5336 189.906 98.1788C191.261 96.3313 192.616 94.7301 193.971 94.1143C195.326 92.6363 196.804 90.7888 198.158 90.7888C199.513 89.8034 200.868 88.9412 202.223 88.3254C204.071 86.9706 206.78 85.7389 210.229 85.7389L212.323 86.3547C212.446 86.7242 212.692 87.0937 212.692 87.4632C212.692 88.8181 212.569 90.2961 212.569 91.7741C212.569 92.3899 212.815 92.8826 213.431 93.0058C214.909 92.6363 217.865 88.9412 219.097 88.0791L223.038 85.3694C223.285 84.9999 223.531 84.6304 223.9 84.2609C224.024 83.8914 224.147 83.7682 224.393 83.7682L225.502 82.6597C225.625 82.7829 225.748 82.7829 225.871 82.7829C225.871 82.6597 225.871 82.5366 225.748 82.4134L226.241 81.5512C226.61 81.6744 226.856 81.7976 227.103 81.9207C227.349 81.5512 227.595 81.3049 227.719 80.9354C227.842 80.8122 227.842 80.5659 227.842 80.5659C227.349 80.3195 227.719 79.8269 227.472 79.4574C228.334 79.4574 228.827 78.8415 229.197 78.2257L229.936 78.5952C230.059 78.2257 230.675 78.1025 230.675 77.6099C230.675 76.8709 231.044 76.255 231.29 75.6392L232.399 75.2697C232.522 75.3929 232.645 75.516 232.768 75.6392C232.892 75.1465 233.015 74.6539 233.138 74.038L234.616 73.0527C234.616 72.6832 234.493 72.3137 234.493 71.9442C234.493 71.5747 234.862 71.3283 235.355 71.2052C235.601 71.2052 235.848 71.082 235.971 70.9588C236.34 70.5893 236.71 70.2198 237.079 69.9735C237.449 69.7272 237.572 69.4808 237.695 69.1113L238.065 68.0028C238.927 68.2492 238.927 68.126 239.05 67.2638C239.173 66.8943 239.543 66.5248 239.789 66.1553C240.035 65.909 240.282 65.6627 240.405 65.2932C240.651 64.9236 240.774 64.6773 241.144 64.5542C241.39 64.431 241.513 64.1846 241.636 63.9383L242.375 62.4603C242.375 62.3371 242.499 62.214 242.622 62.214C243.853 61.5981 244.223 60.2433 245.085 59.258C245.208 59.1348 245.208 59.0116 245.208 58.8885V58.1495C245.455 58.1495 245.578 58.1495 245.701 58.1495C246.317 58.0263 246.563 57.6568 246.686 57.1641C247.056 55.8093 247.918 55.0703 249.273 54.9471C249.396 54.9471 249.519 54.9471 249.642 54.8239C250.628 54.2081 251.49 54.3313 252.352 54.5776C253.707 54.9471 255.062 55.4398 256.417 55.8093C256.909 55.9325 257.156 56.1788 257.279 56.6715L256.909 57.0409C256.54 57.6568 256.54 58.0263 257.032 58.3958L255.554 58.2726ZM184.98 114.93C185.103 115.299 186.458 113.944 186.95 113.821L191.507 110.126C192.37 109.387 193.232 108.894 194.094 108.032C194.956 106.554 195.572 108.032 196.557 105.815C196.557 105.815 198.035 104.707 198.774 103.844C199.39 104.214 200.129 102.366 200.745 101.997C200.868 102.243 201.607 99.041 202.1 99.5336C202.716 98.5483 203.455 97.5629 203.947 96.7008L203.701 96.8239C204.194 95.9618 204.44 95.2228 204.194 94.7301C203.701 94.7301 202.1 97.1934 200.745 96.5776C199.267 97.8093 197.912 98.1788 197.543 98.9178C196.557 100.888 195.695 101.997 194.956 101.627C194.094 102.982 193.355 102.982 192.493 104.583C191.631 105.569 190.892 105.322 190.029 107.539C189.29 107.539 188.428 109.51 187.689 110.495C186.95 111.358 185.103 113.821 184.98 114.93ZM222.176 108.032C222.546 107.909 222.546 107.909 222.546 107.663L222.176 108.032ZM223.038 107.539C223.654 107.293 224.147 107.047 224.516 106.677V106.554C223.531 106.924 223.408 107.047 223.038 107.539ZM223.038 105.569L223.408 105.322V105.446C223.408 105.692 223.285 105.692 223.038 105.569ZM224.639 82.4134H224.886L225.132 82.2902V82.1671C225.009 82.1671 224.886 82.1671 224.763 82.1671C224.763 82.1671 224.763 82.2902 224.639 82.4134ZM231.537 102.366C231.537 102.243 231.66 102.12 231.783 102.243C231.783 102.366 231.66 102.49 231.537 102.366ZM240.651 62.953C241.021 62.953 241.144 62.8298 241.144 62.4603C240.774 62.3371 240.651 62.4603 240.651 62.8298V62.953ZM273.583 75.2697C273.952 75.3929 274.199 75.3929 274.322 75.516L273.583 75.2697ZM217.172 118.625C217.172 118.009 218.774 115.792 221.237 112.836L222.715 110.988C223.331 109.88 223.947 109.264 224.439 109.017C225.055 108.155 225.671 107.17 226.287 106.924C226.903 106.061 227.518 105.446 228.134 104.707L229.982 102.49C230.598 101.751 231.213 101.012 231.829 100.273C232.199 99.78 232.938 99.4105 233.307 98.9178C233.677 98.6715 233.8 97.8093 234.169 97.4398C234.539 97.0703 234.908 96.5776 235.278 96.0849C235.647 95.3459 236.017 95.0996 236.386 94.8533C236.756 94.2374 237.125 93.2521 237.372 93.6216C238.357 92.1436 239.219 91.2814 239.958 90.6656C240.821 89.5571 241.806 89.4339 242.175 88.8181C242.791 88.0791 242.914 87.3401 243.161 87.3401C243.53 86.9706 243.9 86.7242 244.269 86.1084C244.516 85.7389 244.885 85.7389 245.255 85.4926C245.87 85.3694 246.486 85.2462 247.102 85.2462C247.718 85.2462 248.334 85.2462 248.826 85.4926C249.319 85.7389 249.689 86.2316 249.812 86.7242C249.935 87.2169 249.935 87.7096 249.935 88.2022V88.9412C250.92 91.4046 248.95 93.2521 246.609 95.4691L245.87 96.2081C244.762 97.1934 243.653 98.1788 242.668 99.1641L241.19 100.642C240.697 101.258 240.205 101.997 239.712 102.243C239.219 102.982 238.727 104.091 238.357 103.844C237.864 105.322 237.125 105.076 236.756 105.076C236.386 105.569 236.386 106.061 235.894 107.293C235.524 107.539 235.155 107.909 234.785 108.771L233.677 110.249C232.938 111.358 232.322 112.589 231.952 114.067C232.199 114.067 232.445 114.067 232.691 113.944V114.191L234.046 113.944H233.923C234.539 113.821 234.416 113.821 234.416 113.698C235.032 113.452 236.017 112.836 237.125 112.713C238.357 111.974 239.712 112.097 241.19 111.481C242.668 110.619 244.146 110.865 245.624 110.249C247.102 109.264 248.457 109.017 249.565 109.141L250.304 108.155C251.413 108.032 252.398 107.416 253.014 107.416C253.26 107.416 252.645 107.539 251.659 108.402C250.674 108.771 249.196 110.126 247.718 110.495C246.24 111.111 244.639 112.836 243.53 112.466C242.422 112.713 241.56 113.698 241.56 113.452C241.067 114.437 242.422 113.698 241.806 114.93C240.821 116.038 239.958 115.422 238.973 116.654C238.111 116.777 237.125 118.255 236.263 118.501C235.278 118.994 234.539 119.487 233.923 119.979C232.691 120.965 231.829 121.95 229.982 123.059C227.888 124.29 226.04 125.768 224.439 127.246C223.208 127.862 222.345 127.493 221.73 126.877C220.867 126.015 220.128 125.029 219.389 124.167C219.143 123.182 217.419 120.842 217.296 119.979C217.172 119.61 217.172 119.117 217.172 118.625ZM232.691 113.944C233.43 113.944 233.923 113.944 234.416 113.698L234.539 113.575H234.293C234.293 113.575 233.307 113.698 232.691 113.944ZM237.741 115.545C237.741 115.545 238.357 115.422 238.603 115.299C238.85 115.176 239.589 115.053 239.835 114.806C240.082 114.56 240.574 114.437 240.697 114.314H240.821C240.944 114.191 241.19 114.067 241.313 113.821C241.436 113.575 240.944 113.575 240.082 113.944L237.741 115.545ZM251.167 82.5366V81.7976C251.167 81.5512 251.167 81.3049 251.167 81.0585C251.167 80.8122 251.536 80.5659 251.906 80.3195C252.275 80.0732 252.768 79.95 252.891 79.95C253.507 79.7037 257.448 77.9794 257.941 78.3489C258.557 78.2257 259.172 78.3489 259.911 77.733C260.65 77.3635 261.389 77.3635 262.128 77.1172L264.099 76.7477C264.961 76.7477 265.823 76.255 266.686 76.255C267.548 76.1319 268.41 76.255 269.395 75.8855C270.257 76.5014 271.366 75.7624 272.474 75.516C273.09 74.9002 273.706 75.6392 274.322 75.516C274.445 75.6392 274.445 75.7624 274.445 76.0087C274.445 76.255 274.076 76.0087 273.583 76.3782C272.967 76.8709 270.134 77.2404 269.642 78.2257C269.395 78.3489 274.199 76.8709 273.337 77.6099C272.351 78.5952 268.287 80.3195 267.548 80.5659C267.055 80.4427 266.316 81.6744 265.823 81.6744C265.331 81.7976 264.715 82.2902 264.222 82.6597L262.621 83.2756C261.389 83.5219 261.143 84.1377 260.035 84.9999L259.296 85.7389C257.325 86.9706 255.601 86.1084 254.369 84.7536C253.26 83.5219 251.536 83.3987 251.167 82.5366ZM297.774 107.909C299.129 106.924 299.252 106.677 301.222 105.446L300.36 108.771C300.237 109.387 299.005 110.249 297.774 111.481C296.542 112.713 295.434 113.328 291.492 115.299C287.551 117.27 289.029 116.777 286.689 118.625C284.349 120.472 282.378 121.211 281.516 121.95C280.654 122.689 278.683 124.167 277.205 125.029C275.727 125.891 275.234 126.754 274.495 127.493C273.756 128.232 268.953 130.449 265.134 135.375C263.287 137.715 261.563 140.179 259.715 142.519C259.099 143.381 258.36 144.366 257.621 145.475C256.513 147.815 254.912 149.786 253.434 151.756C250.108 156.314 245.797 160.871 243.211 166.044C242.841 166.66 242.472 167.276 241.733 167.522C240.378 167.399 244.319 160.501 243.58 159.762C243.211 158.9 241.61 161.733 241.486 160.871C241.363 158.9 243.088 155.944 243.334 155.082C244.566 153.111 244.196 154.836 245.428 152.865C245.797 152.249 245.92 151.756 245.92 151.387L245.551 152.126C245.058 153.358 244.196 153.481 244.073 152.003C243.95 151.017 244.196 151.017 244.566 150.648V150.278C244.689 150.155 244.812 149.909 244.935 149.539C245.305 148.924 246.167 147.815 247.029 146.707L247.398 146.337C246.659 145.844 248.014 145.105 247.522 144.243L246.29 146.214C246.536 145.475 246.783 144.613 247.152 143.874C247.645 143.012 248.261 142.273 248.753 141.534C248.753 141.41 248.876 141.287 248.876 141.164C249.123 139.686 250.231 138.701 251.093 137.592C251.463 137.223 251.956 136.976 252.325 136.607L254.049 134.39C254.419 134.02 254.788 133.774 255.158 134.267L254.049 135.745C254.173 135.745 254.296 135.745 254.419 135.745L256.266 134.267C255.774 134.883 255.281 135.498 254.542 136.361C254.419 136.976 254.419 136.976 253.31 136.853C253.064 137.715 251.586 137.469 251.463 138.701H252.202C252.202 138.824 252.202 138.824 252.202 138.824C251.956 139.686 251.586 140.548 250.724 141.164C250.478 141.41 250.354 141.903 250.231 142.273L249.862 143.504C249.985 143.258 250.231 143.135 250.478 143.012C250.847 142.273 251.709 141.903 252.079 141.164L252.818 140.056C252.941 139.809 253.064 139.563 253.187 139.317C253.31 139.07 253.434 138.824 253.434 138.578C253.434 138.454 253.557 138.331 253.68 138.331C254.049 138.208 254.296 137.962 254.542 137.715L255.404 136.607C256.266 135.498 257.129 134.39 257.991 133.281C258.114 133.035 258.237 132.912 258.36 132.789L258.73 132.05C258.607 132.05 258.483 132.05 258.36 132.05C258.73 131.434 259.099 130.941 259.715 130.572L261.193 127.985C261.686 127 262.302 126.138 262.917 125.152C262.794 124.783 262.548 124.537 262.302 124.66C261.686 124.906 260.947 125.029 260.454 125.399C257.375 127.616 255.281 127.123 252.079 128.847C251.093 128.847 250.354 128.232 249.739 127.493C248.753 126.261 244.935 123.551 244.442 122.073C244.196 121.334 243.703 118.625 243.457 117.639C243.95 115.299 257.621 101.627 259.099 99.4105C259.838 98.3019 260.7 97.1934 261.563 96.0849C261.932 95.5923 262.548 95.2228 262.917 94.6069C264.395 91.8973 266.612 90.0497 268.706 88.2022C272.894 87.3401 268.953 94.1143 269.445 93.7448V94.1143C269.445 94.2374 269.445 94.3606 269.445 94.4838L268.337 97.0703C268.337 97.1934 265.873 100.642 265.873 100.765C264.395 105.815 264.272 105.199 260.824 109.141C260.824 109.264 259.715 111.604 259.715 111.727C257.252 115.422 254.788 118.748 255.158 118.871C256.39 118.625 257.621 118.132 258.976 117.516L260.085 116.777C260.454 116.777 260.824 116.9 261.193 116.284H260.824C260.947 116.161 261.07 116.038 261.193 115.915C261.316 116.161 261.439 116.161 261.686 115.915V115.545C262.425 115.053 263.164 114.56 263.903 114.067C263.78 114.314 263.656 114.683 263.656 115.053C264.765 114.93 264.765 113.821 265.258 113.328C265.381 113.205 265.381 113.082 265.381 112.959C275.357 105.322 285.334 92.8826 287.428 90.2961L287.797 89.9266C288.659 89.1876 289.522 88.3254 290.137 87.2169L292.724 85.8621C295.68 86.3547 298.02 88.2022 297.651 91.4046V92.1436C297.651 92.6363 297.651 93.1289 297.774 93.6216L297.281 95.0996C297.035 95.3459 296.912 95.5923 296.665 95.7154C293.463 98.3019 290.876 101.504 288.167 104.583C287.428 105.446 286.812 106.431 285.95 107.17C283.979 108.771 282.871 111.358 280.777 112.836C279.176 113.944 278.067 115.669 276.835 117.27C277.821 116.654 278.806 116.161 280.038 116.038C282.624 115.915 281.146 115.915 283.486 114.437C285.827 112.959 284.349 116.531 285.703 115.176C287.058 113.821 287.551 114.067 289.152 113.328C290.753 112.589 291 111.604 293.709 109.756C296.419 107.909 296.173 108.032 297.527 107.047L297.774 107.909ZM260.454 118.871C261.686 118.501 262.178 118.009 262.917 117.147L261.563 117.762C261.563 117.639 261.563 117.516 261.563 117.27L260.454 117.639C260.454 118.132 260.454 118.501 260.454 118.871ZM264.519 116.654L265.258 116.284C265.258 116.161 265.258 116.038 265.258 115.915L264.519 116.284V116.654ZM267.228 112.589C267.228 112.713 267.475 112.836 267.721 112.959L268.09 111.604C267.598 111.85 267.228 112.097 267.228 112.589Z" fill="#0CC3EA"/>
</svg>
