<svg width="111" height="30" viewBox="0 0 111 30" fill="none" xmlns="http://www.w3.org/2000/svg">
<path fill-rule="evenodd" clip-rule="evenodd" d="M37.3617 24.893V19.3838H42.9196V17.4707H37.3617V14.7089C37.3617 14.5363 37.3617 14.3349 37.5173 14.191C37.6587 14.0328 37.8001 14.0472 37.9557 14.0472H44.9844V12.1341H36.8102C36.3859 12.1341 35.891 12.1772 35.4667 12.5944C35.0849 12.954 35 13.4143 35 13.8171V24.893H37.3617ZM46.0875 24.893H48.1805V15.2267H46.0875V24.893ZM48.1805 13.8314V12.1341H46.0875V13.8314H48.1805ZM49.92 24.893H52.0272V19.4413C52.0272 18.7077 52.112 18.046 52.508 17.5426C53.003 16.9528 53.7384 16.8665 54.2899 16.8665H55.1809V15.2267H53.7525C53.0171 15.2267 51.7868 15.2843 50.9099 16.0754C50.1038 16.7802 49.92 17.8159 49.92 18.8803V24.893ZM64.7975 24.893V23.2532H60.1589C59.3952 23.2532 58.5184 23.1381 58.2497 22.1024C58.179 21.8147 58.1224 21.1962 58.1224 20.7791H63.6379C64.0197 20.7791 64.3733 20.7071 64.6561 20.4051C65.0521 20.0023 65.1087 19.4413 65.1087 18.9523C65.1087 17.7296 64.8824 16.5213 63.7652 15.8165C62.8884 15.2555 61.7428 15.198 60.6256 15.198C59.7346 15.198 58.1224 15.198 57.0759 16.1042C56.0435 17.0248 55.9445 18.3481 55.9445 20.1605C55.9445 21.4264 56.0011 22.7641 56.6375 23.6703C57.4153 24.8067 58.5608 24.893 59.5367 24.893H64.7975ZM58.1224 19.1393C58.1366 18.492 58.1224 17.9741 58.5467 17.4707C59.1265 16.8234 59.9892 16.8378 60.5408 16.8378C61.1347 16.8378 61.8135 16.8665 62.3368 17.2693C62.6338 17.5138 62.9449 17.9741 62.9449 18.5639C62.9449 18.8228 62.8884 19.1393 62.4782 19.1393H58.1224ZM68.7008 24.893H71.3454C72.3212 24.893 73.792 24.8211 74.6829 23.5121C75.3617 22.5196 75.4325 21.1387 75.4325 19.8585C75.4325 18.8084 75.4042 17.3124 74.4284 16.2912C73.5233 15.3274 72.2505 15.2267 71.6424 15.2267H68.3189C67.9654 15.2267 67.4987 15.2699 67.1451 15.5432C66.9047 15.7302 66.6077 16.0898 66.6077 16.7227V28H68.7008V24.893ZM68.7008 23.2532V17.3268C68.7008 17.2261 68.7291 17.1111 68.8422 16.996C68.9129 16.9528 69.0402 16.8665 69.125 16.8665H71.1898C72.1232 16.8665 72.7454 17.3412 73.0141 17.9741C73.1273 18.2187 73.2687 18.7365 73.2687 20.0455C73.2687 21.4839 73.0707 22.0737 72.8727 22.3613C72.6464 22.7497 72.1232 23.2532 71.0767 23.2532H68.7008ZM76.9315 24.893H79.0246V19.4413C79.0246 18.7077 79.1236 18.046 79.5054 17.5426C80.0145 16.9528 80.7499 16.8665 81.3015 16.8665H82.1783V15.2267H80.7641C80.0287 15.2267 78.7983 15.2843 77.9215 16.0754C77.1154 16.7802 76.9315 17.8159 76.9315 18.8803V24.893ZM87.6513 15.126C86.5199 15.126 84.8511 15.1548 83.8188 16.1473C82.7298 17.183 82.6025 19.0098 82.6025 20.103C82.6025 21.0811 82.6874 22.9079 83.8188 23.958C84.8511 24.9361 86.5199 25.0081 87.6513 25.0081C88.7402 25.0081 90.4656 24.9361 91.4838 23.958C92.1909 23.2963 92.7142 22.0737 92.7142 20.0311C92.7142 19.0098 92.5869 17.183 91.4838 16.1473C90.4514 15.1548 88.7827 15.126 87.6513 15.126ZM84.7663 20.0886C84.7663 19.4557 84.7663 18.2187 85.3603 17.5282C85.9542 16.8378 86.9725 16.7658 87.6513 16.7658C88.4008 16.7658 89.3201 16.8378 89.9282 17.5282C90.5929 18.2762 90.5363 19.3694 90.5363 20.0886C90.5363 20.9229 90.5363 21.8435 89.914 22.5627C89.2776 23.2676 88.4432 23.3682 87.6513 23.3682C86.9018 23.3682 85.9825 23.2676 85.3744 22.5627C84.7804 21.8723 84.7663 20.8798 84.7663 20.0886ZM99.0074 15.126C97.8761 15.126 96.2073 15.1548 95.1608 16.1473C94.0718 17.183 93.9445 19.0098 93.9445 20.103C93.9445 21.0811 94.0435 22.9079 95.1608 23.958C96.2073 24.9361 97.8761 25.0081 99.0074 25.0081C100.096 25.0081 101.822 24.9361 102.84 23.958C103.533 23.2963 104.056 22.0737 104.056 20.0311C104.056 19.0098 103.929 17.183 102.84 16.1473C101.793 15.1548 100.139 15.126 99.0074 15.126ZM96.1224 20.0886C96.1224 19.4557 96.1224 18.2187 96.7023 17.5282C97.2962 16.8378 98.3286 16.7658 99.0074 16.7658C99.757 16.7658 100.676 16.8378 101.284 17.5282C101.949 18.2762 101.892 19.3694 101.892 20.0886C101.892 20.9229 101.892 21.8435 101.256 22.5627C100.634 23.2676 99.7853 23.3682 99.0074 23.3682C98.2438 23.3682 97.3387 23.2676 96.7306 22.5627C96.1366 21.8723 96.1224 20.8798 96.1224 20.0886ZM108.398 24.893V16.8665H111V15.2267H108.398C108.384 14.45 108.667 14.0472 108.935 13.8602C109.317 13.6157 109.925 13.5725 111 13.5725V12.0046C109.925 11.9759 108.186 12.0622 107.295 12.8102C106.489 13.4862 106.319 14.6082 106.305 15.2555H104.975V16.8665H106.305V24.893H108.398Z" fill="#2C2C2C"/>
<path fill-rule="evenodd" clip-rule="evenodd" d="M17.2723 7.48569L13.3274 6.42627L8.62966 7.48569L4.32227 14.9574L7.45872 15.8356L12.951 14.9574L17.2723 7.48569Z" fill="#F16C12"/>
<path fill-rule="evenodd" clip-rule="evenodd" d="M8.62891 7.48567H12.8387H17.2716C17.2716 4.29345 15.5291 1.49156 12.9502 0L8.62891 7.48567Z" fill="#EE521C"/>
<path fill-rule="evenodd" clip-rule="evenodd" d="M12.9501 14.9575H4.32133C4.30739 14.9575 4.30739 14.9575 4.30739 14.9575L0 22.4432L5.0462 24.116L8.62873 22.4432L12.9501 14.9575ZM17.2714 22.4432L21.1327 23.9347L25.9001 22.4432C25.9001 19.251 24.1716 16.4491 21.5927 14.9575H21.5788L17.2714 22.4432Z" fill="#F58709"/>
<path fill-rule="evenodd" clip-rule="evenodd" d="M8.62873 22.4431H0L4.32133 29.9148H12.9501C10.3712 28.4233 8.62873 25.6353 8.62873 22.4431ZM25.9001 22.4431H17.2714L12.9501 29.9148H21.5788L25.9001 22.4431Z" fill="#F9A100"/>
</svg>
