<svg width="373" height="122" viewBox="0 0 373 122" fill="none" xmlns="http://www.w3.org/2000/svg">
<path d="M93.1543 56.8322H100.322C102.313 56.8322 103.992 56.1215 105.357 54.6993C106.723 53.2772 107.405 51.6555 107.405 49.8351V0.00109863H121.655V39.6808C121.655 46.2228 119.238 51.9118 114.402 56.7472C109.567 61.5826 103.878 64.0001 97.3359 64.0001H78.9893V0.00109863H93.1543V56.8322ZM145.778 64.0001H131.528V0.00012207H145.778V64.0001ZM184.192 0.00012207C188.118 0.00012207 191.474 1.42237 194.262 4.26672C197.049 7.05422 198.443 10.3537 198.443 14.1652V17.8351C198.443 21.874 197.277 25.0884 194.944 27.4777C192.612 29.8668 189.028 31.3744 184.192 32.0001C188.971 32.0001 192.527 33.4504 194.859 36.3517C197.249 39.1961 198.443 42.4674 198.443 46.1652V49.8341C198.443 53.7025 197.021 57.0309 194.177 59.8185C191.389 62.606 188.061 64.0001 184.192 64.0001H155.777V0.00012207H184.192ZM243.385 7.16809H222.052V28.5011H236.302V35.4982H222.052V56.8322H243.385V64.0001H207.887V0.00012207H243.385V7.16809ZM273.246 0.00012207C277.797 0.00012207 281.296 1.19483 283.742 3.58411C286.188 5.9165 287.412 9.4435 287.412 14.1652H280.329C279.703 9.44358 277.456 7.08319 273.588 7.08313C271.142 7.08313 269.264 7.68046 267.956 8.87512C266.705 10.0698 266.078 11.8618 266.078 14.2511C266.078 16.0714 266.79 17.7213 268.212 19.2003L283.23 36.1808C286.018 39.1959 287.412 42.5243 287.412 46.1652V49.8341C287.412 53.7025 286.018 57.0309 283.23 59.8185C280.443 62.606 277.115 64.0001 273.246 64.0001H266.078C261.47 64.0001 257.915 62.8334 255.412 60.5011C253.08 57.998 251.913 54.4421 251.913 49.8341H258.996L258.91 50.9435C258.91 52.8777 259.622 54.357 261.044 55.381C262.523 56.348 264.201 56.8321 266.078 56.8322C268.581 56.8322 270.402 56.2348 271.54 55.0402C272.678 53.7887 273.246 51.9964 273.246 49.6642C273.246 47.8438 272.535 46.1931 271.113 44.714L256.009 27.8185C253.278 24.7467 251.913 21.4188 251.913 17.8351V14.1652C251.913 10.3538 253.278 7.05418 256.009 4.26672C258.739 1.42238 262.096 0.000202217 266.078 0.00012207H273.246ZM169.942 56.8322H177.11C179.044 56.8321 180.694 56.1486 182.06 54.7833C183.482 53.3612 184.192 51.7113 184.192 49.8341V42.6661C184.192 37.8878 181.832 35.4983 177.11 35.4982H169.942V56.8322ZM169.942 28.5011H177.11C178.988 28.501 180.637 27.8185 182.06 26.4532C183.482 25.0311 184.192 23.3242 184.192 21.3331V14.1652C184.192 12.2879 183.482 10.6662 182.06 9.3009C180.694 7.87885 179.044 7.16817 177.11 7.16809H169.942V28.5011Z" fill="#212A4A"/>
<path d="M284.615 33.8373C286.164 33.8373 287.395 34.1221 288.306 34.6918C289.947 35.7171 290.767 36.8565 290.767 38.1097C290.767 39.3402 290.539 40.6505 290.083 42.0404C289.628 43.4303 289.024 44.809 288.272 46.1761C287.543 47.5433 286.7 48.8992 285.743 50.2435L271.093 69.0287C270.113 70.282 268.257 74.6377 267.505 75.8226C266.184 78.6709 265.523 81.1091 265.523 83.1371C265.523 86.0537 266.583 87.5121 268.702 87.5121C269.909 87.5121 272.085 86.2474 275.23 83.7181L279.263 80.3002C279.593 80.0064 279.921 79.7276 280.25 79.4642C280.285 79.4013 280.32 79.3378 280.357 79.2748C282.111 76.2898 284.345 73.7832 287.056 71.7552C289.768 69.7273 292.286 68.7133 294.61 68.7133C297.937 68.7133 299.714 69.6475 299.942 71.516C300.01 72.0856 300.044 72.7465 300.044 73.4984C300.044 74.2504 299.862 75.1163 299.498 76.0961C299.156 77.0531 298.7 78.0215 298.13 79.0013C297.584 79.9584 296.968 80.904 296.285 81.8383C295.624 82.7497 294.986 83.5814 294.371 84.3334C293.186 85.7689 292.24 86.8057 291.534 87.4437C291.534 88.2184 292.115 89.016 293.277 89.8363C294.371 90.611 295.293 90.9984 296.045 90.9984C296.82 90.9984 297.72 90.8161 298.746 90.4515C299.794 90.087 300.865 89.597 301.958 88.9818C303.075 88.3666 304.203 87.6602 305.342 86.8627C306.504 86.0652 307.644 85.2448 308.76 84.4017L315.015 79.514C315.083 79.4646 315.152 79.4166 315.219 79.3685C316.821 76.6271 318.825 74.3736 321.236 72.6097C324.198 70.4222 327.24 69.3285 330.362 69.3285C333.484 69.3285 335.044 70.5476 335.044 72.9857C335.044 74.5124 333.746 76.7797 331.148 79.7875C328.55 82.7725 327.251 85.2334 327.251 87.1703C327.251 88.2184 327.946 88.7426 329.336 88.7426C332.162 88.7426 336.97 85.222 343.76 78.181L347.076 74.8314C349.332 72.6211 350.824 71.516 351.553 71.516C352.282 71.516 352.932 71.6413 353.501 71.892C354.071 72.1426 354.572 72.4616 355.005 72.849C355.894 73.6465 356.338 74.501 356.338 75.4125C356.338 76.3011 356.236 77.2924 356.031 78.3861C355.848 79.4571 355.552 80.6648 355.142 82.0092C354.39 84.5157 353.034 87.8767 351.075 92.0922L349.673 95.1L355.484 89.8363L367.378 79.6508C368.586 78.7393 369.589 78.2836 370.386 78.2836C372.118 78.2836 372.984 79.1153 372.984 80.7787C372.984 82.4877 371.867 84.6866 369.634 87.3754C368.951 88.2185 368.21 89.0046 367.413 89.7338L359.346 96.7406L343.624 110.036C342.234 111.244 341.185 112.201 340.479 112.908C339.636 114.275 338.975 115.289 338.497 115.95C338.041 116.633 337.585 117.351 337.129 118.103C336.674 118.878 336.229 119.538 335.796 120.085C334.862 121.27 333.928 121.863 332.994 121.863C332.014 121.863 331.068 121.464 330.157 120.666C328.471 119.185 327.627 117.864 327.627 116.702C327.627 115.539 327.946 114.184 328.584 112.634C329.222 111.107 330.054 109.353 331.08 107.37L338.326 94.0062C334.839 97.1507 332.105 99.2357 330.123 100.261C328.14 101.264 326.465 101.925 325.098 102.244C323.754 102.585 322.318 102.756 320.792 102.756C319.288 102.756 317.966 102.437 316.827 101.799C315.687 101.184 314.742 100.352 313.99 99.3041C312.739 97.5255 312.026 95.2859 311.848 92.5853C311.731 92.6826 311.613 92.7812 311.495 92.8783C309.877 94.1999 308.191 95.4646 306.436 96.6722C304.704 97.8571 302.972 98.9053 301.241 99.8168C299.509 100.705 297.823 101.412 296.182 101.936C294.542 102.483 292.924 102.756 291.329 102.756C289.756 102.756 288.116 102.38 286.407 101.628C284.721 100.854 283.217 99.8282 281.895 98.5521C279.687 96.4127 278.308 94.0935 277.758 91.5941C276.896 92.3155 275.963 93.0749 274.957 93.8695C269.283 98.3129 264.725 100.535 261.285 100.535C258.687 100.535 256.727 99.4408 255.406 97.2533C254.608 95.9317 253.959 93.9948 253.458 91.4427L250.416 93.6302C242.053 99.418 235.809 102.312 231.685 102.312C228.244 102.312 225.487 101.059 223.414 98.5521C221.591 96.2963 220.679 93.596 220.679 90.4515C220.679 86.988 221.864 84.2536 224.234 82.2484C229.065 78.1924 235.069 74.8542 242.247 72.2338C245.163 71.1628 247.009 70.6273 247.784 70.6273C248.558 70.6273 249.265 70.764 249.903 71.0375C250.564 71.2881 251.213 71.6185 251.851 72.0287C253.355 73.0541 254.107 74.0453 254.107 75.0023C254.107 75.777 253.628 76.4037 252.671 76.8822C252.375 77.0417 251.874 77.2582 251.167 77.5316C250.461 77.8051 249.595 78.181 248.57 78.6595C245.813 79.9584 243.124 81.5306 240.503 83.3763C238.635 84.9714 237.701 86.2474 237.701 87.2045C237.701 88.1387 238.362 88.6058 239.683 88.6058C240.777 88.6058 242.964 87.6374 246.246 85.7006C246.246 85.7006 247.214 85.1081 249.151 83.9232C251.224 82.6244 252.888 81.4395 254.141 80.3685C254.141 80.3685 254.665 78.6595 255.713 75.2416C257.65 69.1348 268.598 50.8903 270.968 46.9027C275.161 38.8591 280.376 33.8373 284.615 33.8373ZM303.341 50.222C304.412 50.222 305.21 50.3474 305.734 50.598C306.281 50.8259 306.725 51.1335 307.067 51.5209C307.75 52.2956 308.092 53.0932 308.092 53.9135C308.092 54.711 307.99 55.4402 307.785 56.101C307.602 56.7617 307.329 57.4454 306.964 58.1517C306.6 58.8581 306.155 59.5645 305.631 60.2709C305.107 60.9772 304.515 61.6153 303.854 62.1849C303.193 62.7318 302.475 63.1875 301.701 63.5521C300.926 63.8939 300.06 64.0648 299.103 64.0648C298.146 64.0648 297.223 63.9053 296.334 63.5863C295.446 63.2673 294.671 62.8229 294.01 62.2533C292.575 61.0228 291.857 59.4505 291.857 57.5365C291.857 54.597 294.318 52.4095 299.24 50.974C300.903 50.4727 302.27 50.222 303.341 50.222Z" fill="#E9AD21"/>
<path d="M64.9893 32C64.9893 14.3269 50.6624 -2.17128e-06 32.9893 -1.39876e-06C15.3161 -6.26248e-07 0.989256 14.3269 0.989256 32C0.989257 49.6731 15.3161 64 32.9893 64C50.6624 64 64.9893 49.6731 64.9893 32Z" fill="#212A4A"/>
<path d="M12.0104 17.7777L12.1038 24.6191C18.6945 27.075 23.947 23.1395 30.5003 26.1392C33.5092 27.5165 35.642 33.6358 37.0829 35.1795C42.6533 29.6476 49.7839 28.971 52.3863 27.0575C55.3685 24.8647 55.0506 17.2689 58.7059 20.4967C61.2299 38.6704 46.2257 40.179 40.1679 41.407C39.7566 44.9505 39.6724 49.529 37.1483 48.9501C33.5959 48.1432 33.9138 41.2316 32.9976 39.758C32.8013 39.4423 29.3985 37.6705 28.8282 37.4951C23.4155 35.8286 14.4597 38.8107 9.85087 35.39C5.24208 31.9693 6.37325 13.0062 12.001 17.7601L12.0104 17.7777Z" fill="white"/>
</svg>
